<svg width="25" height="22" viewBox="0 0 25 22" fill="none" xmlns="http://www.w3.org/2000/svg">
<path d="M12.5 0C15.0434 0 17.1053 2.22413 17.1053 4.96774C17.1053 6.65725 16.3234 8.14977 15.1287 9.04724C15.3065 9.1219 15.4811 9.20415 15.6518 9.29342C15.6583 9.29681 15.6646 9.30015 15.671 9.30349C15.7022 9.3199 15.7333 9.3366 15.7643 9.35353C15.7776 9.36073 15.7909 9.36802 15.8041 9.37536C15.8207 9.38463 15.8373 9.39391 15.8538 9.40326C15.8759 9.41562 15.8978 9.42815 15.9197 9.44081C15.9313 9.44766 15.9429 9.45445 15.9545 9.46127C16.2031 9.60687 16.4435 9.76831 16.6747 9.94467C16.6804 9.94955 16.6863 9.95409 16.6923 9.95863C16.7113 9.97274 16.7301 9.98733 16.7489 10.002C16.5553 9.55017 16.4474 9.04675 16.4474 8.51613C16.4474 6.55641 17.9201 4.96774 19.7368 4.96774C21.5536 4.96774 23.0263 6.55641 23.0263 8.51613C23.0263 9.56681 22.603 10.5108 21.9303 11.1606C23.7418 12.0572 25 14.0314 25 16.3226V18.8691C25 19.1585 24.837 19.4189 24.5882 19.5272C22.9764 20.2286 21.358 20.5806 19.7368 20.5806C19.505 20.5806 19.2732 20.5734 19.0414 20.559L19.2312 20.5686L19.0801 20.6329C18.9144 20.7019 18.7486 20.7682 18.5828 20.832C18.5619 20.84 18.5411 20.848 18.5202 20.8559C18.4553 20.8806 18.3903 20.9049 18.3254 20.9288C18.3102 20.9344 18.295 20.94 18.2797 20.9456C18.2156 20.969 18.1516 20.992 18.0876 21.0146C18.0549 21.0261 18.022 21.0376 17.9891 21.0491C17.9365 21.0673 17.8841 21.0852 17.8317 21.1028C17.8031 21.1125 17.7745 21.122 17.7459 21.1315C17.6927 21.1492 17.6395 21.1665 17.5863 21.1836C17.5603 21.1919 17.5342 21.2003 17.5082 21.2085C17.4433 21.229 17.3786 21.2491 17.3139 21.2687C17.3074 21.2707 17.3007 21.2728 17.2941 21.2748C17.22 21.2972 17.1462 21.319 17.0723 21.3404C17.0508 21.3466 17.0292 21.3528 17.0076 21.3589C16.9535 21.3743 16.8996 21.3894 16.8456 21.4042C16.8045 21.4155 16.7632 21.4266 16.722 21.4376C16.6785 21.4492 16.6349 21.4606 16.5914 21.4719C16.5606 21.4799 16.5297 21.4877 16.4989 21.4955C16.4452 21.5091 16.3916 21.5223 16.338 21.5353C16.3001 21.5445 16.2621 21.5536 16.2242 21.5625C16.1813 21.5725 16.1385 21.5825 16.0956 21.5922C16.0636 21.5994 16.0314 21.6066 15.9993 21.6137C15.9399 21.6269 15.8806 21.6396 15.8213 21.6521C15.8001 21.6565 15.7789 21.6609 15.7577 21.6652C15.6995 21.6772 15.6411 21.6889 15.5828 21.7002C15.5525 21.7061 15.5223 21.7119 15.492 21.7176C15.4439 21.7267 15.3957 21.7356 15.3476 21.7443C15.3059 21.7517 15.2641 21.7591 15.2223 21.7663C15.1936 21.7712 15.165 21.776 15.1363 21.7808C15.0776 21.7906 15.0189 21.8 14.9602 21.8091C14.9369 21.8127 14.9136 21.8163 14.8903 21.8198C14.8367 21.8279 14.7832 21.8357 14.7296 21.8432C14.6919 21.8485 14.654 21.8537 14.616 21.8588C14.5719 21.8647 14.5279 21.8704 14.4839 21.8759C14.4403 21.8813 14.3966 21.8866 14.3528 21.8917C14.3142 21.8963 14.2755 21.9006 14.2368 21.9049C14.1921 21.9098 14.1475 21.9145 14.1028 21.919C14.0654 21.9228 14.0278 21.9264 13.9903 21.93C13.9535 21.9334 13.9168 21.9367 13.8801 21.9399C13.828 21.9445 13.7759 21.9488 13.7238 21.9528C13.7116 21.9537 13.6993 21.9546 13.687 21.9556C13.6206 21.9605 13.5542 21.9651 13.4878 21.9692C13.1586 21.9897 12.8293 22 12.5 22C10.2217 22 7.94599 21.509 5.67672 20.5299L5.76842 20.5686L5.61106 20.5752L5.4951 20.5782L5.26316 20.5806C3.64204 20.5806 2.02364 20.2286 0.411792 19.5272C0.162951 19.4189 0 19.1585 0 18.8691V16.3226C0 14.0314 1.25815 12.0572 3.06983 11.1601C2.39702 10.5108 1.97368 9.56681 1.97368 8.51613C1.97368 6.55641 3.44643 4.96774 5.26316 4.96774C7.07988 4.96774 8.55263 6.55641 8.55263 8.51613C8.55263 9.04689 8.4446 9.55043 8.25097 10.0026C8.45759 9.8402 8.67224 9.69011 8.89364 9.55271L8.97692 9.50204C8.98433 9.49757 8.99175 9.49312 8.99918 9.48869C9.01359 9.47988 9.02816 9.47125 9.04276 9.46268C9.06579 9.44933 9.08881 9.43598 9.11191 9.42275C9.12843 9.41316 9.14512 9.40371 9.16183 9.39433C9.39155 9.26538 9.6283 9.14932 9.87143 9.04703C8.6766 8.14977 7.89474 6.65725 7.89474 4.96774C7.89474 2.22413 9.95658 0 12.5 0ZM12.5 9.93548L12.3699 9.937C12.2884 9.93891 12.2072 9.94259 12.1264 9.94804C12.1157 9.94871 12.1051 9.94946 12.0944 9.95023L12.1264 9.94804C12.0919 9.95037 12.0575 9.95301 12.0231 9.95597L12.0944 9.95023C12.0526 9.95329 12.0109 9.95681 11.9693 9.96079L12.0231 9.95597C11.8821 9.96813 11.7421 9.98565 11.6034 10.0084C11.6016 10.0085 11.5997 10.0088 11.5978 10.0091L11.6034 10.0084C11.5619 10.0152 11.5205 10.0225 11.4792 10.0302L11.5978 10.0091C11.5556 10.0161 11.5134 10.0236 11.4714 10.0315L11.4792 10.0302C11.2702 10.0694 11.0643 10.1206 10.8622 10.1831C10.8594 10.1838 10.8565 10.1847 10.8537 10.1856L10.8622 10.1831C10.744 10.2197 10.627 10.2603 10.5115 10.3046C10.496 10.3105 10.4804 10.3166 10.4648 10.3228L10.5115 10.3046C10.4787 10.3172 10.4459 10.3302 10.4133 10.3434L10.4648 10.3228C10.429 10.3369 10.3934 10.3514 10.3579 10.3663L10.4133 10.3434C10.381 10.3565 10.3489 10.3699 10.3169 10.3835L10.3579 10.3663C10.1936 10.4351 10.0329 10.5115 9.87614 10.5953C9.87098 10.5977 9.86605 10.6003 9.86111 10.603L9.87614 10.5953C9.72525 10.6759 9.57801 10.7632 9.43474 10.8569C9.42783 10.8608 9.42116 10.8652 9.41449 10.8696L9.43474 10.8569C8.9707 11.1604 8.54839 11.5306 8.17929 11.9554C8.17849 11.956 8.17767 11.957 8.17686 11.9579L8.17929 11.9554C8.15551 11.9828 8.13195 12.0104 8.10861 12.0382C8.09525 12.0539 8.08204 12.0698 8.0689 12.0858L8.10861 12.0382C8.07811 12.0745 8.04799 12.1113 8.01826 12.1484C8.00173 12.1689 7.98537 12.1896 7.96913 12.2104L8.01826 12.1484C7.12141 13.2679 6.57895 14.7269 6.57895 16.3226V19.3841L6.64546 19.4114C6.72379 19.4426 6.80212 19.4733 6.88043 19.5033C6.91682 19.5172 6.95336 19.531 6.9899 19.5448C7.2165 19.6299 7.44291 19.7097 7.66927 19.7843C7.78321 19.8218 7.89731 19.858 8.01138 19.893C8.29024 19.9784 8.56898 20.0558 8.84763 20.1252C8.99756 20.1626 9.14751 20.1977 9.29743 20.2304C9.47873 20.2701 9.65981 20.3063 9.84085 20.3392C9.94703 20.3584 10.0532 20.3766 10.1593 20.3935C10.3158 20.4185 10.4721 20.441 10.6285 20.461C10.8112 20.4844 10.9938 20.5043 11.1765 20.5208C11.2404 20.5266 11.3042 20.5319 11.368 20.5369C11.4948 20.5467 11.6216 20.5548 11.7484 20.5613C11.921 20.5702 12.0934 20.576 12.2658 20.5788L12.2513 20.5782L12.2658 20.5788L12.5 20.5806L12.7342 20.5788C12.8685 20.5766 13.0029 20.5726 13.1373 20.5668C13.1634 20.5656 13.1896 20.5644 13.2158 20.5631L13.1373 20.5668C13.2028 20.5639 13.2684 20.5606 13.3339 20.5569L13.2158 20.5631C13.2947 20.5593 13.3737 20.5548 13.4526 20.5496L13.3339 20.5569C13.4205 20.552 13.507 20.5463 13.5935 20.5398L13.4526 20.5496C13.5315 20.5445 13.6105 20.5387 13.6894 20.5323L13.5935 20.5398C13.6693 20.5341 13.7451 20.5279 13.8209 20.521L13.6894 20.5323C13.7708 20.5257 13.8521 20.5184 13.9335 20.5105L13.8209 20.521C13.8939 20.5145 13.9669 20.5073 14.0399 20.4996L13.9335 20.5105C14.0134 20.5026 14.0932 20.4942 14.1731 20.485L14.0399 20.4996C14.1385 20.4893 14.2371 20.4779 14.3357 20.4655L14.1731 20.485C14.2452 20.4768 14.3174 20.468 14.3895 20.4587L14.3357 20.4655C14.4005 20.4574 14.4653 20.4489 14.5301 20.4399L14.3895 20.4587C14.4824 20.4467 14.5753 20.4338 14.6683 20.4201L14.5301 20.4399C14.6034 20.4297 14.6767 20.419 14.75 20.4077L14.6683 20.4201C14.7435 20.4089 14.8188 20.3972 14.8941 20.3849L14.75 20.4077C14.8381 20.3942 14.9262 20.3799 15.0143 20.3647L14.8941 20.3849C14.9683 20.3728 15.0424 20.3601 15.1166 20.3468L15.0143 20.3647C15.1039 20.3494 15.1935 20.3332 15.2831 20.3161L15.1166 20.3468C15.1901 20.3337 15.2637 20.32 15.3373 20.3057L15.2831 20.3161C15.3576 20.302 15.432 20.2873 15.5065 20.272L15.3373 20.3057C15.4305 20.2877 15.5238 20.2687 15.617 20.2489L15.5065 20.272C15.5724 20.2585 15.6383 20.2445 15.7042 20.2301L15.617 20.2489C15.7061 20.2299 15.7951 20.2102 15.8842 20.1896L15.7042 20.2301C15.7857 20.2123 15.8673 20.1937 15.9488 20.1746L15.8842 20.1896C15.9543 20.1734 16.0245 20.1567 16.0947 20.1395L15.9488 20.1746C16.0361 20.154 16.1234 20.1327 16.2107 20.1106L16.0947 20.1395C16.1722 20.1205 16.2496 20.1009 16.3271 20.0806L16.2107 20.1106C16.2885 20.0908 16.3664 20.0705 16.4444 20.0495L16.3271 20.0806C16.4027 20.0609 16.4784 20.0405 16.554 20.0196L16.4444 20.0495C16.5332 20.0256 16.6221 20.0009 16.711 19.9753L16.554 20.0196C16.6207 20.0012 16.6874 19.9823 16.7541 19.9629L16.711 19.9753C16.7818 19.955 16.8526 19.9341 16.9235 19.9128L16.7541 19.9629C16.8587 19.9325 16.9633 19.9011 17.0679 19.8685L16.9235 19.9128C17.0037 19.8886 17.0839 19.8637 17.1642 19.8382L17.0679 19.8685C17.1416 19.8455 17.2152 19.822 17.2889 19.798L17.1642 19.8382C17.2455 19.8123 17.3269 19.7857 17.4083 19.7585L17.2889 19.798C17.3652 19.7731 17.4415 19.7475 17.5178 19.7214L17.4083 19.7585C17.4877 19.7319 17.5671 19.7047 17.6465 19.6768L17.5178 19.7214C17.6166 19.6876 17.7153 19.6529 17.8142 19.6171L17.6465 19.6768C17.7251 19.6493 17.8038 19.621 17.8824 19.5922L17.8142 19.6171C17.9975 19.5506 18.1809 19.4808 18.3643 19.4075L18.4211 19.3841V16.3226C18.4211 14.8018 17.9283 13.4051 17.1057 12.3083C17.089 12.2859 17.072 12.2637 17.055 12.2416L17.1057 12.3083C17.0826 12.2775 17.0593 12.247 17.0357 12.2167L17.055 12.2416C17.0028 12.1738 16.9494 12.1073 16.8948 12.0421C16.8851 12.0307 16.8755 12.0193 16.8658 12.0079L16.8948 12.0421C16.8711 12.0138 16.8472 11.9858 16.8231 11.958L16.8658 12.0079C16.7995 11.9299 16.7315 11.8537 16.6617 11.7793C16.6548 11.7716 16.6477 11.764 16.6405 11.7565L16.6617 11.7793C16.6379 11.7539 16.6138 11.7287 16.5896 11.7037L16.6405 11.7565C16.6136 11.728 16.5863 11.6998 16.5589 11.6719L16.5896 11.7037C16.1434 11.2439 15.6307 10.8585 15.0686 10.5662C15.0501 10.5563 15.0315 10.5467 15.0128 10.5372L15.0686 10.5662C15.0246 10.5433 14.9803 10.5209 14.9357 10.4992C14.9093 10.4862 14.8828 10.4735 14.8562 10.4611L14.9357 10.4992C14.9039 10.4837 14.872 10.4685 14.8399 10.4536L14.8562 10.4611C14.8233 10.4457 14.7903 10.4306 14.7571 10.4158L14.8399 10.4536C14.7966 10.4335 14.7531 10.4139 14.7092 10.3949L14.7571 10.4158C14.7179 10.3984 14.6785 10.3814 14.639 10.3649L14.7092 10.3949C14.6768 10.3808 14.6443 10.3671 14.6117 10.3536L14.639 10.3649C14.5205 10.3154 14.4003 10.27 14.2787 10.2288C14.266 10.2244 14.253 10.22 14.2401 10.2157L14.2787 10.2288C14.236 10.2143 14.1931 10.2004 14.15 10.1869L14.2401 10.2157C14.2047 10.204 14.1691 10.1926 14.1335 10.1816L14.15 10.1869C13.9891 10.1367 13.8258 10.0937 13.6604 10.0583C13.6522 10.0563 13.6441 10.0546 13.636 10.0529L13.6604 10.0583C13.5782 10.0407 13.4956 10.0249 13.4124 10.011C13.4054 10.0097 13.3983 10.0085 13.3913 10.0074L13.4124 10.011C13.3248 9.99639 13.2367 9.98384 13.1481 9.97342C13.1418 9.97256 13.1353 9.97181 13.1288 9.97108L13.1481 9.97342C13.1081 9.96871 13.068 9.96444 13.0278 9.9606L13.1288 9.97108C13.0784 9.96533 13.0277 9.96027 12.9769 9.9559L13.0278 9.9606C12.9907 9.95706 12.9536 9.95389 12.9164 9.95109L12.9769 9.9559C12.9383 9.95258 12.8995 9.94966 12.8607 9.94714L12.9164 9.95109C12.8734 9.94786 12.8303 9.94512 12.7871 9.94289L12.8607 9.94714C12.8209 9.94456 12.781 9.9424 12.741 9.94068L12.7871 9.94289C12.6918 9.93797 12.5961 9.93548 12.5 9.93548ZM19.7368 12.0645C19.3678 12.0645 19.0066 12.119 18.6605 12.2246C19.3431 13.4157 19.7368 14.8195 19.7368 16.3226V19.1613C21.0479 19.1613 22.3612 18.9027 23.6795 18.3835L23.6842 18.3814V16.3226C23.6842 14.0071 21.9709 12.1233 19.8372 12.0659L19.7368 12.0645ZM5.26316 12.0645C3.08309 12.0645 1.31579 13.9709 1.31579 16.3226V18.3817L1.54085 18.4679C2.71584 18.905 3.88693 19.1349 5.05613 19.1591L5.26316 19.1613V16.3226C5.26316 14.8195 5.65694 13.4157 6.33929 12.2246C5.99343 12.119 5.63216 12.0645 5.26316 12.0645ZM19.7368 6.3871C18.6468 6.3871 17.7632 7.3403 17.7632 8.51613C17.7632 9.69196 18.6468 10.6452 19.7368 10.6452C20.8269 10.6452 21.7105 9.69196 21.7105 8.51613C21.7105 7.3403 20.8269 6.3871 19.7368 6.3871ZM5.26316 6.3871C4.17312 6.3871 3.28947 7.3403 3.28947 8.51613C3.28947 9.69196 4.17312 10.6452 5.26316 10.6452C6.35319 10.6452 7.23684 9.69196 7.23684 8.51613C7.23684 7.3403 6.35319 6.3871 5.26316 6.3871ZM12.5 1.41935C10.6833 1.41935 9.21053 3.00802 9.21053 4.96774C9.21053 6.92746 10.6833 8.51613 12.5 8.51613C14.3167 8.51613 15.7895 6.92746 15.7895 4.96774C15.7895 3.00802 14.3167 1.41935 12.5 1.41935Z" fill="#E35176"/>
</svg>
