<svg width="27" height="20" viewBox="0 0 27 20" fill="none" xmlns="http://www.w3.org/2000/svg">
<path fill-rule="evenodd" clip-rule="evenodd" d="M18.1493 17.6922C18.1493 18.8302 16.4517 19.7405 14.3609 19.7405C12.2701 19.7405 10.5725 18.8188 10.5725 17.6922C10.5748 17.4733 10.6348 17.2592 10.746 17.0731C11.2269 17.9107 12.6632 18.5161 14.3609 18.5161C15.481 18.5161 17.3455 18.1724 17.9758 17.0731C18.0863 17.2587 18.1463 17.4718 18.1493 17.6899V17.6922ZM9.2855 17.4782C9.2855 18.8688 7.20571 20 4.64275 20C2.07979 20 0 18.8688 0 17.4782C0.00460654 17.2102 0.0806113 16.9487 0.219619 16.7226C0.810395 17.7468 2.56955 18.491 4.64934 18.491C6.02196 18.491 8.306 18.07 9.07906 16.7226C9.21776 16.9488 9.29374 17.2103 9.29868 17.4782H9.2855ZM9.31186 14.8518C9.31186 16.2424 7.23206 17.3735 4.66911 17.3735C2.10615 17.3735 0.0263543 16.2424 0.0263543 14.8518C0.0316369 14.5838 0.107588 14.3225 0.245974 14.0962C0.83675 15.1203 2.5959 15.8646 4.6757 15.8646C6.04832 15.8646 8.33236 15.4435 9.10542 14.0962C9.24319 14.3228 9.31909 14.584 9.32504 14.8518H9.31186ZM6.3448 8.30382L6.2899 8.92971L4.01244 8.72488C4.20216 8.97413 4.33573 9.26418 4.40337 9.57381L3.85432 9.52374C3.80333 9.3248 3.72016 9.13625 3.60835 8.96613C3.49461 8.77519 3.32981 8.62259 3.13397 8.52687L3.17789 8.01933L6.3448 8.30382ZM4.73938 7.32288C6.81259 7.32288 8.48389 8.02843 8.48389 8.87509C8.48389 9.72175 6.77526 10.425 4.66911 10.425C2.56296 10.425 0.854319 9.72858 0.854319 8.87964C0.854319 8.03071 2.50805 7.34337 4.56808 7.32744L4.73938 7.32288ZM4.72401 6.80852C7.26061 6.80852 9.31186 7.9465 9.31186 9.33028C9.31186 10.7141 7.23206 11.8543 4.66911 11.8543C2.10615 11.8543 0.0263543 10.7232 0.0263543 9.33484C0.0263543 7.9465 2.0776 6.81762 4.61201 6.80852H4.72401ZM9.31186 12.1411C9.31186 13.5317 7.23206 14.6629 4.66911 14.6629C2.10615 14.6629 0.0263543 13.5317 0.0263543 12.1411C0.0271618 11.8863 0.0939018 11.6363 0.219619 11.4173C0.792826 12.4552 2.56515 13.2154 4.66691 13.2154C6.04173 13.2154 8.35652 12.7875 9.11201 11.4173C9.23828 11.6363 9.30647 11.886 9.30966 12.1411H9.31186ZM9.66325 0.00338423C9.87451 -0.0162971 10.0848 0.0504111 10.2493 0.18926C10.4137 0.328109 10.5193 0.528091 10.5433 0.74649C10.5674 0.964889 10.5082 1.18439 10.3782 1.35811C10.2482 1.53183 10.0578 1.64599 9.84773 1.67622L8.39165 1.85374L13.7196 5.84806L15.9883 3.74052C16.1168 3.62003 16.2793 3.54567 16.4518 3.52845C16.6243 3.51123 16.7975 3.55208 16.9458 3.64493L24.7577 8.56784C24.9412 8.68283 25.073 8.86864 25.1243 9.0844C25.1756 9.30016 25.1421 9.52819 25.0311 9.71834C24.9202 9.90848 24.7409 10.0451 24.5327 10.0983C24.3245 10.1514 24.1044 10.1167 23.9209 10.0017L16.6208 5.40425L14.3126 7.55048C14.175 7.67754 13.9997 7.75219 13.8156 7.76212C13.6316 7.77205 13.4497 7.71667 13.3001 7.6051L7.28917 3.10552L7.48023 4.78291C7.5047 5.00444 7.44324 5.22696 7.30938 5.40154C7.17553 5.57611 6.98024 5.68842 6.76647 5.71378C6.55271 5.73913 6.33798 5.67544 6.16952 5.53672C6.00107 5.398 5.89269 5.19562 5.86823 4.97409L5.46193 1.40765V1.36441C5.43777 1.14365 5.49877 0.921943 5.63164 0.747585C5.76451 0.573226 5.95848 0.460348 6.1713 0.433541L9.66325 0.00338423ZM24.5688 14.4785L24.5249 14.9883L22.6647 14.8222C22.818 15.0228 22.9267 15.2559 22.9832 15.505L22.5439 15.464C22.5017 15.3016 22.4334 15.1477 22.3419 15.0088C22.2488 14.8537 22.1146 14.7297 21.9553 14.6515L21.9905 14.2373L24.5754 14.4649L24.5688 14.4785ZM23.407 13.6819C25.03 13.7252 26.3148 14.2737 26.3148 14.9451C26.3148 15.6165 24.9202 16.2105 23.2006 16.2105C21.481 16.2105 20.0864 15.6415 20.0864 14.9451C20.0864 14.2486 21.4041 13.7115 23.049 13.6796C23.1698 13.6796 23.2884 13.6796 23.407 13.6796V13.6819ZM23.407 13.2609C25.4078 13.3155 27 14.2168 27 15.3092C27 16.4472 25.3023 17.3576 23.2116 17.3576C21.1208 17.3576 19.4231 16.4336 19.4231 15.3092C19.4231 14.1849 21.0264 13.3041 23.0381 13.2609C23.1611 13.2609 23.2818 13.2609 23.407 13.2609ZM26.8397 17.1073C26.9423 17.2865 26.9976 17.4906 27 17.699C27 18.837 25.3023 19.7474 23.2116 19.7474C21.1208 19.7474 19.4231 18.837 19.4231 17.699C19.4242 17.4904 19.4796 17.2859 19.5835 17.1073C20.0512 17.9562 21.4963 18.5752 23.2116 18.5752C24.3448 18.5752 26.2269 18.2202 26.8397 17.1073ZM15.7291 12.173L15.6852 12.6828L13.836 12.5212C13.9847 12.7232 14.0896 12.9561 14.1435 13.204L13.7042 13.163C13.662 13.0006 13.5937 12.8467 13.5022 12.7078C13.4106 12.5517 13.277 12.4267 13.1179 12.3482L13.153 11.9363L15.7379 12.1639L15.7291 12.173ZM14.563 11.3832C16.1881 11.4264 17.4729 11.9772 17.4729 12.6464C17.4729 13.3155 16.0783 13.9118 14.3609 13.9118C12.6435 13.9118 11.2467 13.3428 11.2467 12.6464C11.2467 11.9499 12.5534 11.4173 14.194 11.3832H14.563ZM14.5476 10.9644C16.5505 11.0168 18.1493 11.9181 18.1493 13.0128C18.1493 14.1508 16.4517 15.0612 14.3609 15.0612C12.2701 15.0612 10.5725 14.1508 10.5725 13.0128C10.5725 11.8748 12.1823 11.0008 14.1984 10.9644C14.3148 10.9644 14.418 10.9644 14.5476 10.9644ZM18.1493 15.4003C18.1493 16.5383 16.4517 17.4486 14.3609 17.4486C12.2701 17.4486 10.5725 16.5246 10.5725 15.4003C10.5705 15.1877 10.626 14.9787 10.7328 14.7971C11.1984 15.6438 12.6457 16.2651 14.3609 16.2651C15.4832 16.2651 17.3741 15.9146 17.989 14.7971C18.0911 14.9758 18.1463 15.179 18.1493 15.3866V15.4003Z" fill="#9D6DEC"/>
</svg>
