<svg width="26" height="21" viewBox="0 0 26 21" fill="none" xmlns="http://www.w3.org/2000/svg">
<path d="M19.2231 13.9851C19.2294 14.0363 19.235 14.0877 19.2399 14.1393L19.2612 14.3627L19.2515 14.2389L19.2488 14.221L19.2231 13.9851ZM19.2231 13.9851C19.2314 14.0508 19.2386 14.1168 19.2445 14.1831L19.2231 13.9851ZM1.11829 7.06301L1.11764 7.05028C1.11712 7.04022 1.11633 7.03061 1.11536 7.02152V3.94925C1.11633 3.94015 1.11712 3.93054 1.11764 3.92048L1.11829 3.90775V3.94189V4.37523V6.59554V7.02887V7.06301ZM25.1154 4.37523V3.94189H25.1183V7.02887H25.1154V6.59554V4.37523ZM6.98897 14.1367L6.94946 14.5492L6.97508 14.2298C7.00309 13.8806 7.06562 13.5394 7.15954 13.2093C7.07698 13.5095 7.01937 13.8193 6.98897 14.1367ZM16.5971 17.8812C16.5972 17.8812 16.5973 17.8813 16.5974 17.8814L16.5971 17.8812ZM9.60105 17.9523C9.60064 17.9527 9.60048 17.9528 9.6008 17.9526L9.60105 17.9523Z" fill="#DA7D3B" stroke="#CD7C43"/>
<mask id="path-2-inside-1_1245_393" fill="white">
<path d="M13.1368 10.9224C12.8605 10.9224 12.6368 11.1311 12.6368 11.389V14.4579L10.5822 16.3765C10.3868 16.5588 10.3868 16.8541 10.5822 17.0364C10.7775 17.2187 11.0939 17.2187 11.2892 17.0364L13.4904 14.9811C13.5841 14.8936 13.6368 14.7751 13.6368 14.6511V11.389C13.6368 11.1311 13.4132 10.9224 13.1368 10.9224Z"/>
</mask>
<path d="M13.1368 10.9224C12.8605 10.9224 12.6368 11.1311 12.6368 11.389V14.4579L10.5822 16.3765C10.3868 16.5588 10.3868 16.8541 10.5822 17.0364C10.7775 17.2187 11.0939 17.2187 11.2892 17.0364L13.4904 14.9811C13.5841 14.8936 13.6368 14.7751 13.6368 14.6511V11.389C13.6368 11.1311 13.4132 10.9224 13.1368 10.9224Z" fill="#D78246"/>
<path d="M12.6368 14.4579L13.3193 15.1888L13.6368 14.8923V14.4579H12.6368ZM10.5822 16.3765L11.2645 17.1076L11.2646 17.1074L10.5822 16.3765ZM11.2892 17.0364L11.9715 17.7675L11.9717 17.7673L11.2892 17.0364ZM13.4904 14.9811L12.808 14.25L12.8079 14.2502L13.4904 14.9811ZM13.6368 11.389H14.6368V11.389L13.6368 11.389ZM13.1368 9.92236C12.3743 9.92236 11.6368 10.5149 11.6368 11.389H13.6368C13.6368 11.7472 13.3467 11.9224 13.1368 11.9224V9.92236ZM11.6368 11.389V14.4579H13.6368V11.389H11.6368ZM11.9543 13.727L9.89966 15.6456L11.2646 17.1074L13.3193 15.1888L11.9543 13.727ZM9.89983 15.6455C9.28095 16.2231 9.28095 17.1899 9.89983 17.7675L11.2645 16.3054C11.4927 16.5184 11.4927 16.8945 11.2645 17.1076L9.89983 15.6455ZM9.89983 17.7675C10.4793 18.3083 11.392 18.3084 11.9715 17.7675L10.6069 16.3054C10.7083 16.2107 10.83 16.1731 10.9357 16.1731C11.0413 16.1731 11.163 16.2107 11.2645 16.3054L9.89983 17.7675ZM11.9717 17.7673L14.1728 15.712L12.8079 14.2502L10.6067 16.3055L11.9717 17.7673ZM14.1727 15.7121C14.4603 15.4437 14.6368 15.064 14.6368 14.6511H12.6368C12.6368 14.4862 12.7079 14.3435 12.808 14.25L14.1727 15.7121ZM14.6368 14.6511V11.389H12.6368V14.6511H14.6368ZM14.6368 11.389C14.6368 10.5149 13.8994 9.92236 13.1368 9.92236V11.9224C12.927 11.9224 12.6368 11.7472 12.6368 11.389L14.6368 11.389Z" fill="#CD7C43" mask="url(#path-2-inside-1_1245_393)"/>
</svg>
