<svg width="23" height="22" viewBox="0 0 23 22" fill="none" xmlns="http://www.w3.org/2000/svg">
<path d="M6.41341 16.8868L4.39046 18.7572L3.45233 17.8897C3.36612 17.8097 3.23009 17.8141 3.14953 17.8993C3.06854 17.9846 3.07294 18.1184 3.15936 18.1982L4.24398 19.2013C4.2852 19.2393 4.33773 19.2584 4.39046 19.2584C4.44319 19.2584 4.49572 19.2393 4.53694 19.2013L6.70638 17.1953C6.7928 17.1155 6.7972 16.9817 6.71621 16.8965C6.63565 16.8111 6.49963 16.807 6.41341 16.8868Z" fill="#3682D2"/>
<path d="M18.6942 17.8325H8.75817C8.63973 17.8325 8.54388 17.9272 8.54388 18.044C8.54388 18.1607 8.63973 18.2554 8.75817 18.2554H18.6942C18.8126 18.2554 18.9085 18.1607 18.9085 18.044C18.9085 17.9272 18.8126 17.8325 18.6942 17.8325Z" fill="#3682D2"/>
<path d="M6.41341 12.9205L4.39046 14.791L3.45233 13.9235C3.36612 13.8435 3.23009 13.8479 3.14953 13.9331C3.06854 14.0184 3.07294 14.1522 3.15936 14.232L4.24398 15.235C4.2852 15.2731 4.33773 15.2922 4.39046 15.2922C4.44319 15.2922 4.49572 15.2731 4.53694 15.235L6.70638 13.229C6.7928 13.1491 6.7972 13.0154 6.71621 12.9302C6.63565 12.8448 6.49963 12.8407 6.41341 12.9205Z" fill="#3682D2"/>
<path d="M18.6942 13.8667H8.75817C8.63973 13.8667 8.54388 13.9614 8.54388 14.0781C8.54388 14.1949 8.63973 14.2896 8.75817 14.2896H18.6942C18.8126 14.2896 18.9085 14.1949 18.9085 14.0781C18.9085 13.9614 18.8126 13.8667 18.6942 13.8667Z" fill="#3682D2"/>
<path d="M6.41341 8.95417L4.39046 10.8246L3.45233 9.95722C3.36612 9.87721 3.23009 9.88144 3.14953 9.96692C3.06854 10.0521 3.07294 10.1859 3.15936 10.2657L4.24398 11.2686C4.2852 11.3067 4.33773 11.3258 4.39046 11.3258C4.44319 11.3258 4.49572 11.3067 4.53694 11.2686L6.70638 9.26264C6.7928 9.18284 6.7972 9.04905 6.71621 8.96388C6.63565 8.8785 6.49963 8.87437 6.41341 8.95417Z" fill="#3682D2"/>
<path d="M18.6942 9.90039H8.75817C8.63973 9.90039 8.54388 9.99506 8.54388 10.1118C8.54388 10.2286 8.63973 10.3232 8.75817 10.3232H18.6942C18.8126 10.3232 18.9085 10.2286 18.9085 10.1118C18.9085 9.99506 18.8126 9.90039 18.6942 9.90039Z" fill="#3682D2"/>
<path d="M16.4993 2.46486L18.7663 4.18944V7.59656H17.2469V5.68078C17.2469 5.25024 16.8732 4.89827 16.4192 4.89827C15.9645 4.89827 15.5915 5.25024 15.5915 5.68078V7.59656H14.2323V4.18944L16.4993 2.46486ZM16.3666 2.05001L13.0932 4.5405C12.8503 4.70477 13.1339 5.04335 13.3567 4.85533L13.8092 4.51127V7.79859C13.8092 7.90972 13.9043 8 14.021 8H15.8024C15.92 8 16.0145 7.90972 16.0145 7.79859V5.68078C16.0145 5.46764 16.1904 5.3017 16.419 5.30094C16.6469 5.30094 16.8221 5.46764 16.8221 5.68078V7.79859C16.8221 7.90972 16.9173 8 17.0339 8H18.9784C19.0952 8 19.1902 7.90972 19.1902 7.79859V4.51127L19.6417 4.85533C19.8652 5.0464 20.1515 4.70401 19.9053 4.5405L16.632 2.05001C16.5358 1.97709 16.4468 1.98988 16.3666 2.05001Z" fill="#3682D2"/>
<rect x="0.660706" y="0.774902" width="21.5357" height="20.1814" stroke="#3682D2" stroke-width="0.75"/>
</svg>
